# xmcd CD database file
#
# Track frame offsets:
#	150
#	13592
#	24255
#	35271
#	47609
#	58842
#	69683
#	82169
#	92955
#	105572
#	115815
#	126267
#	136535
#	149057
#	159009
#	170487
#	182764
#	195050
#	208029
#	219225
#	232076
#	245568
#
# Disc length: 3463 seconds
#
# Revision: 1
# Processed by: cddbd v1.5.1PL0 Copyright (c) Steve Scherf et al.
# Submitted via: CDex 1.51
#
DISCID=2f0d8516
DTITLE=Roy Orbison - Pretty Woman Dream (Greatest Hits)
DYEAR=2003
DGENRE=Blues
TTITLE0=Oh, Pretty Woman
TTITLE1=Falling
TTITLE2=Only The Lonely
TTITLE3=Pretty Paper
TTITLE4=Blue Bayou
TTITLE5=Mean Woman Blues
TTITLE6=Blue Angel
TTITLE7=All I Have Is To Dream
TTITLE8=In Dreams
TTITLE9=Lana
TTITLE10=Beautiful Dreamer
TTITLE11=The Great Pretender
TTITLE12=Candy Man
TTITLE13=Bye Bye Love
TTITLE14=Dream
TTITLE15=Cry
TTITLE16=I Can't Stop Loving You
TTITLE17=What'd I Say
TTITLE18=Love Hurts
TTITLE19=Born On The Wind
TTITLE20=Let The Good Times Roll
TTITLE21=I'd Be Legend In My Time
EXTD=YEAR: 2003
EXTT0=
EXTT1=
EXTT2=
EXTT3=
EXTT4=
EXTT5=
EXTT6=
EXTT7=
EXTT8=
EXTT9=
EXTT10=
EXTT11=
EXTT12=
EXTT13=
EXTT14=
EXTT15=
EXTT16=
EXTT17=
EXTT18=
EXTT19=
EXTT20=
EXTT21=
PLAYORDER=
